<svg id="Camada_1" data-name="Camada 1" xmlns="http://www.w3.org/2000/svg" viewBox="0 0 1133.41 1133.41"><defs><style>.cls-1{fill:#a5a5a5;}.cls-2{fill:#fff;}.cls-3{fill:#3a3a3a;}.cls-4{fill:#bfbfbf;}</style></defs><circle class="cls-1" cx="566.71" cy="566.71" r="566.71"/><path class="cls-2" d="M204.57,886.47,215.06,897l10.83-6.09,14.82,14.89-6.15,10.81L245,927.16l32-56.24L261,854.72Zm41.83,9.36-10.49-10.55,22.83-12.86.63.64Z"/><polygon class="cls-2" points="354.89 974.24 354.27 973.91 362.82 934.02 345.65 925.06 313.25 978.52 326.35 985.35 347.03 951.11 347.56 951.39 338.74 991.82 349.09 997.22 377.21 966.86 377.74 967.14 361.39 1003.64 374.49 1010.47 399.81 953.32 382.73 944.41 354.89 974.24"/><path class="cls-2" d="M409.18,1023.55l14.33,4,6.41-10.65,20.24,5.65,0,12.43,14.33,4,.13-64.73-22-6.14Zm41.06-38.7-.05,26.2-14.34-4,13.52-22.44Z"/><path class="cls-2" d="M545.34,988.49Q541,986,533.54,985.3L506.7,983l-5.42,62.15,14.81,1.29,1.75-20,9.85.86,7.7,20.81,16,1.4-8.68-23.25a13.12,13.12,0,0,0,3.64-2.19q4.95-4.42,5.86-15,.7-8.07-.91-13.06A13,13,0,0,0,545.34,988.49Zm-24.89,8,11.63,1c2.06.18,3.44.6,4.15,1.26s1,1.79.86,3.39l-.91,10.43c-.14,1.6-.62,2.66-1.43,3.18s-2.25.71-4.31.53l-11.63-1Z"/><polygon class="cls-2" points="603.97 1035.24 602.82 1021.91 624.59 1020.02 623.63 1008.98 601.86 1010.87 600.7 997.54 624.37 995.49 625.2 983.1 584.82 986.6 590.22 1048.75 630.49 1045.26 629.43 1033.03 603.97 1035.24"/><path class="cls-2" d="M613.51,975.4a10.49,10.49,0,0,0,1.35-.52,3.27,3.27,0,0,0,.94-.78l3-3a2.14,2.14,0,0,0,.86-1.58,2.58,2.58,0,0,0-.91-1.32l-5.82-5.81a1.92,1.92,0,0,0-1.36-.68,2,2,0,0,0-1,.48L594.73,976l3.56,4.19Z"/><polygon class="cls-2" points="726.78 955.21 732.34 1004.74 731.49 1005.06 702.87 964.23 688.95 969.47 726.09 1022.14 747.57 1014.03 740.69 949.96 726.78 955.21"/><rect class="cls-2" x="778.23" y="929.95" width="14.87" height="62.38" transform="translate(-368.25 503.38) rotate(-29.1)"/><path class="cls-2" d="M865.1,906.11a86.5,86.5,0,0,0-10.48-11.58,19.49,19.49,0,0,0-9.09-4.93,16.21,16.21,0,0,0-9.44,1.28A53.72,53.72,0,0,0,824.64,898l-19.76,15.4,38.34,49.21L863,947.24a55.48,55.48,0,0,0,9.77-9.32,15.81,15.81,0,0,0,3.55-8.84A19.92,19.92,0,0,0,873.71,919,85.69,85.69,0,0,0,865.1,906.11Zm-3,24.91c-.3,1.46-1.61,3.08-3.92,4.88l-10.55,8.22-23.74-30.46,10.55-8.22q3.46-2.7,5.69-2.6c1.49.06,3,1.12,4.62,3.16l15.4,19.76Q862.57,928.83,862.12,931Z"/><path class="cls-2" d="M938.22,874.51,948,863.34l-58.26-28.21L874.68,852.3l35.47,54.16L920,895.28l-6.8-10.4L927,869.1Zm-31.36.76L892.5,853.35l.6-.68,23.58,11.42Z"/><path class="cls-3" d="M790.33,751.47c-9.31-43-52.17-179.17-137-290.84C557.12,322.13,447,231,358.81,216.8c-20-3.23-38.5-2.3-55,2.67a91.87,91.87,0,0,0-29.13,14.59,99.4,99.4,0,0,0-25.34,28.39c-9,15-14.84,32.91-17.14,53.22-10.19,89.81,46.46,215.57,155.39,345.07,63.54,86,189.24,153.59,249.67,186.13,9.94,5.34,17.76,9.57,23,12.61a28.05,28.05,0,0,0,24.41,1.92,28,28,0,0,0,16.4-17l15-38.07,5-12.61,32.49-6,11.61-2.17a28.33,28.33,0,0,0,19.69-10.62A28,28,0,0,0,790.33,751.47Zm-75,5.41c-9.51.93-23,7.08-27.33,19.38l-10.43,26.39-7.71,19.44q-6.42-3.54-14.9-8c-58.13-31.3-179.24-96.45-237.62-175.89l-.75-1C315.4,517.15,260.37,398.52,269.26,319.83A105.83,105.83,0,0,1,275,294.74c4.78-13,12.23-23.41,22.17-30.87,8.94-6.83,19.94-10.62,32.79-11.49,1.93-.12,3.92-.18,5.9-.18a103.64,103.64,0,0,1,17.08,1.43c60.56,9.69,163.34,74.9,270,228.55l.5.68C698.35,581.3,739.65,703,751.7,750.11l-24.22,4.53Z"/><path class="cls-2" d="M751.7,750.11l-36.39,6.77c-9.51.93-23,7.08-27.33,19.38l-18.14,45.83q-6.42-3.54-14.9-8c-58.13-31.3-179.24-96.45-237.62-175.89l-.75-1C315.4,517.15,260.37,398.52,269.26,319.83c2.85-25.34,12.23-44.22,27.88-56,10.31-7.82,23.29-11.67,38.69-11.67a103.64,103.64,0,0,1,17.08,1.43c60.56,9.69,163.34,74.9,270,228.55l.5.68C698.35,581.3,739.65,703,751.7,750.11Z"/><path class="cls-4" d="M727.48,754.64l-12.17,2.24c-9.51.93-23,7.08-27.33,19.38l-10.43,26.39L275,294.74c4.78-13,12.23-23.41,22.17-30.87,8.94-6.83,19.94-10.62,32.79-11.49Z"/><path class="cls-3" d="M902.25,327.78c-1.12-33.35-12.55-60.74-33.11-79.18C847,228.66,816.48,219.65,781,222.51c-90.11,7.27-202.65,87-308.79,218.8C399.93,520.19,357.7,656.51,337.39,722.1c-3.36,10.74-6,19.19-7.95,25a28,28,0,0,0,2.79,24.28,28.27,28.27,0,0,0,19.88,12.86l53.59,9.87,16.46,41.68A28.2,28.2,0,0,0,460.42,854c40.43-17.45,165.83-85.64,259.11-190.29C837,542.61,905.29,417,902.25,327.78ZM692.51,637.94l-.49.62c-82.3,92.36-193.78,156.33-237.69,177.2l-7.76-19.63-5.84-14.78c-2.79-9.19-11.43-21.18-24.28-23.11l-18.82-3.47-29.69-5.53c1.49-4.66,3.17-10.06,5-16.15,19.57-63.1,60.25-194.39,127-267l.81-.93c98.38-122.29,204.27-199.11,283.14-205.51A108.54,108.54,0,0,1,806,260c15.34,1.8,28.14,7.27,38.2,16.34,7.58,6.77,13.1,15.65,16.52,26.45A94.14,94.14,0,0,1,865,329C867.1,390.39,822.88,503.73,692.51,637.94Z"/><path class="cls-2" d="M692.51,637.94l-.49.62c-82.3,92.36-193.78,156.33-237.69,177.2l-13.6-34.41c-2.79-9.19-11.43-21.18-24.28-23.11l-48.51-9c1.49-4.66,3.17-10.06,5-16.15,19.57-63.1,60.25-194.39,127-267l.81-.93c98.38-122.29,204.27-199.11,283.14-205.51,25.47-2,45.78,3.54,60.31,16.65,13,11.67,20,29.43,20.74,52.72C867.1,390.39,822.88,503.73,692.51,637.94Z"/><path class="cls-4" d="M860.76,302.75,446.57,796.13l-5.84-14.78c-2.79-9.19-11.43-21.18-24.28-23.11l-18.82-3.47-5.54-1L806,260c15.34,1.8,28.14,7.27,38.2,16.34C851.82,283.07,857.34,292,860.76,302.75Z"/></svg>