<svg id="Camada_1" data-name="Camada 1" xmlns="http://www.w3.org/2000/svg" viewBox="0 0 1133.41 994.12"><defs><style>.cls-1{fill:#353535;}.cls-2{fill:#3a3a3a;}.cls-3{fill:#fff;}.cls-4{fill:#bfbfbf;}</style></defs><path class="cls-1" d="M123.13,800.47l12.52,12.59,12.92-7.28,17.69,17.78-7.35,12.89L171.43,849l38.24-67.11-19.23-19.33Zm49.92,11.17-12.52-12.59,27.24-15.34.76.76Z"/><polygon class="cls-1" points="302.5 905.21 301.77 904.82 311.97 857.21 291.48 846.52 252.82 910.32 268.45 918.47 293.13 877.61 293.76 877.94 283.23 926.18 295.59 932.63 329.13 896.4 329.77 896.73 310.26 940.29 325.89 948.44 356.1 880.24 335.73 869.61 302.5 905.21"/><path class="cls-1" d="M367.29,964.05l17.1,4.77,7.65-12.7,24.15,6.73,0,14.83,17.1,4.77.15-77.24-26.27-7.33Zm49-46.18-.06,31.27-17.1-4.77,16.13-26.79Z"/><path class="cls-1" d="M529.77,922.21q-5.19-3-14.08-3.8l-32-2.79-6.47,74.15,17.68,1.55,2.08-23.86,11.76,1,9.18,24.84L537,995l-10.37-27.75a15.85,15.85,0,0,0,4.35-2.6q5.89-5.29,7-17.86.84-9.62-1.09-15.58A15.51,15.51,0,0,0,529.77,922.21Zm-29.71,9.54L513.94,933q3.67.33,4.95,1.51c.85.79,1.19,2.14,1,4L518.83,951c-.17,1.9-.74,3.17-1.71,3.8s-2.68.84-5.14.63l-13.88-1.21Z"/><polygon class="cls-1" points="599.73 977.99 598.35 962.09 624.33 959.83 623.19 946.66 597.21 948.92 595.82 933.02 624.06 930.57 625.05 915.78 576.88 919.96 583.31 994.12 631.37 989.95 630.1 975.35 599.73 977.99"/><path class="cls-1" d="M611.1,906.59a11.42,11.42,0,0,0,1.62-.62,3.87,3.87,0,0,0,1.12-.93l3.51-3.54a2.53,2.53,0,0,0,1-1.88A3.13,3.13,0,0,0,617.3,898l-6.94-6.93a2.24,2.24,0,0,0-1.63-.81,2.2,2.2,0,0,0-1.14.57l-18.9,16.47,4.26,5Z"/><polygon class="cls-1" points="746.26 882.5 752.9 941.6 751.89 941.98 717.73 893.26 701.13 899.52 745.45 962.36 771.08 952.7 762.87 876.24 746.26 882.5"/><rect class="cls-1" x="807.66" y="852.36" width="17.75" height="74.44" transform="translate(-329.55 509.36) rotate(-29.1)"/><path class="cls-1" d="M911.32,823.91a102.73,102.73,0,0,0-12.5-13.81q-5.55-4.89-10.86-5.89a19.35,19.35,0,0,0-11.26,1.53A63.86,63.86,0,0,0,863,814.27l-23.58,18.37,45.76,58.72L908.79,873a66.09,66.09,0,0,0,11.65-11.12,18.81,18.81,0,0,0,4.24-10.55q.29-5.43-3.09-12A102.87,102.87,0,0,0,911.32,823.91Zm-3.56,29.73c-.36,1.74-1.91,3.68-4.67,5.83l-12.59,9.8-28.33-36.35,12.59-9.81c2.75-2.15,5-3.18,6.79-3.1s3.61,1.33,5.51,3.77l18.38,23.58C907.34,849.81,908.12,851.9,907.76,853.64Z"/><path class="cls-1" d="M998.57,786.21l11.71-13.33-69.52-33.66-18,20.49,42.32,64.61L976.79,811l-8.12-12.41,16.55-18.83Zm-37.42.9L944,761l.71-.81,28.14,13.63Z"/><path class="cls-2" d="M833.55,639.39c-11.12-51.36-62.25-213.8-163.49-347C555.27,127.07,423.87,18.28,318.64,1.38c-23.87-3.85-45.95-2.74-65.59,3.19A109.49,109.49,0,0,0,218.29,22a118.63,118.63,0,0,0-30.24,33.87c-10.74,17.86-17.71,39.28-20.45,63.51C155.45,226.53,223,376.6,353,531.12c75.82,102.64,225.81,183.27,297.92,222.1,11.86,6.38,21.2,11.42,27.5,15a33.6,33.6,0,0,0,48.69-18l17.93-45.43,5.93-15,38.76-7.19,13.86-2.6a33.6,33.6,0,0,0,29.94-40.61ZM744,645.84c-11.33,1.11-27.42,8.45-32.6,23.12L699,700.46l-9.19,23.19q-7.68-4.21-17.79-9.56C602.62,676.74,458.11,599,388.45,504.22l-.89-1.19c-120.73-143.25-186.39-284.8-175.79-378.7a126.62,126.62,0,0,1,6.82-29.94c5.7-15.56,14.6-27.94,26.45-36.83,10.68-8.16,23.79-12.68,39.13-13.71,2.3-.15,4.67-.23,7-.23a124.26,124.26,0,0,1,20.39,1.71c72.25,11.56,194.9,89.37,322.22,272.72l.6.82c89.37,117.46,138.66,262.64,153,318.89l-28.9,5.41Z"/><path class="cls-3" d="M787.45,637.76,744,645.84c-11.33,1.11-27.42,8.45-32.6,23.12l-21.64,54.69q-7.68-4.21-17.79-9.56C602.62,676.74,458.11,599,388.45,504.22l-.89-1.19c-120.73-143.25-186.39-284.8-175.79-378.7,3.41-30.24,14.6-52.77,33.27-66.77,12.31-9.34,27.8-13.94,46.17-13.94a124.26,124.26,0,0,1,20.39,1.71c72.25,11.56,194.9,89.37,322.22,272.72l.6.82C723.79,436.33,773.08,581.51,787.45,637.76Z"/><path class="cls-4" d="M758.55,643.17,744,645.84c-11.33,1.11-27.42,8.45-32.6,23.12L699,700.46,218.59,94.39c5.7-15.56,14.6-27.94,26.45-36.83,10.68-8.16,23.79-12.68,39.13-13.71Z"/><path class="cls-2" d="M967.1,133.82c-1.34-39.8-15-72.48-39.51-94.49C901.21,15.54,864.75,4.79,822.36,8.2,714.83,16.87,580.54,112,453.89,269.29,367.7,363.41,317.3,526.08,293.07,604.34c-4,12.82-7.12,22.9-9.49,29.86a33.34,33.34,0,0,0,3.34,29,33.7,33.7,0,0,0,23.71,15.34l64,11.78L394.23,740a33.65,33.65,0,0,0,45.65,21.64c48.24-20.82,197.87-102.19,309.18-227.07C889.21,390.16,970.73,240.31,967.1,133.82ZM716.83,503.92l-.6.74C618,614.86,485,691.19,432.62,716.1l-9.27-23.42-7-17.64c-3.34-11-13.64-25.27-29-27.57L365,643.32l-35.42-6.6c1.78-5.55,3.78-12,6-19.26,23.35-75.3,71.89-232,151.56-318.6l1-1.11C605.44,151.82,731.8,60.15,825.92,52.52a129.36,129.36,0,0,1,26.38.37c18.3,2.15,33.57,8.67,45.58,19.49,9,8.08,15.63,18.67,19.71,31.57a112.33,112.33,0,0,1,5,31.35C925.15,208.52,872.38,343.77,716.83,503.92Z"/><path class="cls-3" d="M716.83,503.92l-.6.74C618,614.86,485,691.19,432.62,716.1L416.39,675c-3.34-11-13.64-25.27-29-27.57l-57.88-10.75c1.78-5.55,3.78-12,6-19.26,23.35-75.3,71.89-232,151.56-318.6l1-1.11C605.44,151.82,731.8,60.15,825.92,52.52c30.38-2.45,54.62,4.22,72,19.86,15.49,13.93,23.86,35.13,24.75,62.92C925.15,208.52,872.38,343.77,716.83,503.92Z"/><path class="cls-4" d="M917.59,104,423.35,692.68l-7-17.64c-3.34-11-13.64-25.27-29-27.57L365,643.32l-6.61-1.25,494-589.18c18.3,2.15,33.57,8.67,45.58,19.49C906.92,80.46,913.51,91.05,917.59,104Z"/><circle class="cls-1" cx="30.88" cy="418.92" r="30.88"/><circle class="cls-1" cx="1102.54" cy="418.92" r="30.88"/></svg>