<svg id="Camada_1" data-name="Camada 1" xmlns="http://www.w3.org/2000/svg" viewBox="0 0 1009.69 1133.41"><defs><style>.cls-1{fill:#353535;}.cls-2{fill:#3a3a3a;}.cls-3{fill:#fff;}.cls-4{fill:#bfbfbf;}</style></defs><path class="cls-1" d="M0,912l14.25,14.32L29,918.07l20.12,20.24L40.73,953,55,967.29,98.5,890.91l-21.9-22Zm56.81,12.71L42.56,910.41l31-17.45.86.86Z"/><polygon class="cls-1" points="204.15 1031.23 203.31 1030.79 214.92 976.61 191.61 964.44 147.6 1037.05 165.39 1046.32 193.48 999.82 194.2 1000.2 182.21 1055.1 196.28 1062.44 234.46 1021.2 235.18 1021.59 212.98 1071.16 230.77 1080.44 265.15 1002.82 241.96 990.72 204.15 1031.23"/><path class="cls-1" d="M277.89,1098.21l19.45,5.42,8.71-14.46,27.49,7.67,0,16.88,19.45,5.43.18-87.91-29.9-8.34Zm55.75-52.57-.07,35.59-19.47-5.43,18.37-30.48Z"/><path class="cls-1" d="M462.8,1050.58q-5.9-3.43-16-4.32l-36.46-3.18-7.36,84.4,20.12,1.76,2.37-27.15,13.37,1.17,10.46,28.26,21.74,1.89-11.79-31.58a17.68,17.68,0,0,0,4.94-3q6.72-6,8-20.33,1-10.93-1.24-17.73A17.7,17.7,0,0,0,462.8,1050.58ZM429,1061.45l15.8,1.37q4.18.38,5.64,1.72t1.16,4.59l-1.24,14.18c-.18,2.16-.84,3.6-1.94,4.32s-3.05,1-5.85.72L426.77,1087Z"/><polygon class="cls-1" points="542.43 1114.07 540.85 1095.97 570.43 1093.4 569.13 1078.42 539.55 1080.98 537.98 1062.88 570.12 1060.1 571.25 1043.26 516.42 1048.02 523.74 1132.42 578.44 1127.68 577 1111.07 542.43 1114.07"/><path class="cls-1" d="M555.37,1032.8a11.82,11.82,0,0,0,1.85-.7,4.29,4.29,0,0,0,1.27-1.06l4-4a2.85,2.85,0,0,0,1.17-2.14,3.46,3.46,0,0,0-1.24-1.8l-7.9-7.88a2.53,2.53,0,0,0-1.85-.93,2.6,2.6,0,0,0-1.3.66l-21.5,18.74,4.84,5.7Z"/><polygon class="cls-1" points="709.2 1005.38 716.75 1072.65 715.61 1073.09 676.73 1017.63 657.83 1024.76 708.27 1096.28 737.45 1085.28 728.1 998.26 709.2 1005.38"/><rect class="cls-1" x="779.09" y="971.09" width="20.2" height="84.72" transform="translate(-393.24 511.7) rotate(-29.1)"/><path class="cls-1" d="M897.06,938.71A118,118,0,0,0,882.83,923q-6.32-5.57-12.35-6.7A22.06,22.06,0,0,0,857.66,918a72.76,72.76,0,0,0-15.55,9.72l-26.84,20.9,52.08,66.84,26.83-20.92a75,75,0,0,0,13.26-12.65,21.39,21.39,0,0,0,4.82-12q.33-6.18-3.51-13.67A118.09,118.09,0,0,0,897.06,938.71Zm-4,33.83q-.62,3-5.32,6.63l-14.33,11.16L841.12,949l14.33-11.17c3.13-2.44,5.71-3.61,7.73-3.53s4.1,1.52,6.27,4.3l20.92,26.84Q893.61,969.57,893,972.54Z"/><path class="cls-1" d="M996.36,895.79l13.33-15.17-79.12-38.31-20.49,23.32,48.16,73.55L971.57,924l-9.24-14.12,18.84-21.44Zm-42.59,1-19.49-29.77.8-.92,32,15.51Z"/><path class="cls-2" d="M808.55,728.7c-12.66-58.45-70.86-243.34-186.07-395-130.65-188.1-280.2-311.92-400-331.15-27.16-4.38-52.3-3.12-74.65,3.63A124.44,124.44,0,0,0,108.3,26,134.92,134.92,0,0,0,73.89,64.56c-12.23,20.33-20.16,44.7-23.28,72.28-13.83,122,63.09,292.77,211,468.63,86.28,116.82,257,208.59,339.07,252.79,13.49,7.25,24.12,13,31.29,17.12a38.24,38.24,0,0,0,55.41-20.5l20.42-51.7,6.74-17.12,44.12-8.19,15.77-3a38.5,38.5,0,0,0,26.74-14.42A38.1,38.1,0,0,0,808.55,728.7ZM706.66,736c-12.91,1.26-31.21,9.61-37.12,26.31L655.37,798.2l-10.46,26.4q-8.73-4.8-20.24-10.88c-78.95-42.51-243.42-131-322.71-238.87l-1-1.35c-137.4-163-212.13-324.14-200.07-431a144.38,144.38,0,0,1,7.76-34.07c6.5-17.72,16.62-31.8,30.11-41.92,12.15-9.28,27.08-14.43,44.54-15.61,2.61-.17,5.31-.25,8-.25a141.86,141.86,0,0,1,23.2,1.94C296.73,65.74,436.33,154.3,581.23,363l.68.93C683.63,497.59,739.72,662.83,756.08,726.84L723.19,733Z"/><path class="cls-3" d="M756.08,726.84,706.66,736c-12.91,1.26-31.21,9.61-37.12,26.31L644.91,824.6q-8.73-4.8-20.24-10.88c-78.95-42.51-243.42-131-322.71-238.87l-1-1.35c-137.4-163-212.13-324.14-200.07-431,3.88-34.41,16.62-60.05,37.87-76,14-10.63,31.63-15.86,52.55-15.86a141.86,141.86,0,0,1,23.2,1.94C296.73,65.74,436.33,154.3,581.23,363l.68.93C683.63,497.59,739.72,662.83,756.08,726.84Z"/><path class="cls-4" d="M723.19,733l-16.53,3c-12.91,1.26-31.21,9.61-37.12,26.31L655.37,798.2,108.64,108.42c6.5-17.72,16.62-31.8,30.11-41.92,12.15-9.28,27.08-14.43,44.54-15.61Z"/><path class="cls-2" d="M960.54,153.29c-1.52-45.29-17-82.49-45-107.54-30-27.08-71.52-39.31-119.77-35.43C673.42,20.19,520.59,128.49,376.44,307.47,278.35,414.59,221,599.73,193.41,688.8c-4.56,14.6-8.1,26.07-10.8,34a38,38,0,0,0,3.8,33,38.37,38.37,0,0,0,27,17.45l72.79,13.42,22.35,56.59a38.3,38.3,0,0,0,52,24.63c54.91-23.7,225.2-116.31,351.89-258.44C871.89,445,964.67,274.5,960.54,153.29ZM675.7,574.51l-.67.85C563.27,700.78,411.87,787.66,352.23,816l-10.54-26.66-7.93-20.07c-3.79-12.48-15.52-28.76-33-31.38l-25.56-4.72-40.31-7.51c2-6.32,4.3-13.66,6.83-21.93,26.57-85.69,81.81-264,172.49-362.6l1.09-1.27C548.93,173.79,692.74,69.45,799.86,60.76a147.71,147.71,0,0,1,30,.42c20.83,2.45,38.2,9.87,51.87,22.19,10.29,9.19,17.8,21.25,22.43,35.93,3.46,10.54,5.32,22.52,5.74,35.68C912.8,238.31,852.74,392.24,675.7,574.51Z"/><path class="cls-3" d="M675.7,574.51l-.67.85C563.27,700.78,411.87,787.66,352.23,816l-18.47-46.73c-3.79-12.48-15.52-28.76-33-31.38l-65.87-12.23c2-6.32,4.3-13.66,6.83-21.93,26.57-85.69,81.81-264,172.49-362.6l1.09-1.27C548.93,173.79,692.74,69.45,799.86,60.76,834.44,58,862,65.57,881.76,83.37c17.63,15.85,27.16,40,28.17,71.61C912.8,238.31,852.74,392.24,675.7,574.51Z"/><path class="cls-4" d="M904.19,119.3l-562.5,670-7.93-20.07c-3.79-12.48-15.52-28.76-33-31.38l-25.56-4.72-7.52-1.42L829.89,61.18c20.83,2.45,38.2,9.87,51.87,22.19C892.05,92.56,899.56,104.62,904.19,119.3Z"/></svg>