<svg id="Camada_1" data-name="Camada 1" xmlns="http://www.w3.org/2000/svg" viewBox="0 0 1009.69 880.61"><defs><style>.cls-1{fill:#191a3b;}.cls-2{fill:#fff;}.cls-3{fill:#5eaed9;}</style></defs><path class="cls-1" d="M808.55,728.7c-12.66-58.45-70.86-243.34-186.07-395-130.65-188.1-280.2-311.92-400-331.15-27.16-4.38-52.3-3.12-74.65,3.63A124.44,124.44,0,0,0,108.3,26,134.92,134.92,0,0,0,73.89,64.56c-12.23,20.33-20.16,44.7-23.28,72.28-13.83,122,63.09,292.77,211,468.63,86.28,116.82,257,208.59,339.07,252.79,13.49,7.25,24.12,13,31.29,17.12a38.24,38.24,0,0,0,55.41-20.5l20.42-51.7,6.74-17.12,44.12-8.19,15.77-3a38.5,38.5,0,0,0,26.74-14.42A38.1,38.1,0,0,0,808.55,728.7ZM706.66,736c-12.91,1.26-31.21,9.61-37.12,26.31L655.37,798.2l-10.46,26.4q-8.73-4.8-20.24-10.88c-78.95-42.51-243.42-131-322.71-238.87l-1-1.35c-137.4-163-212.13-324.14-200.07-431a144.38,144.38,0,0,1,7.76-34.07c6.5-17.72,16.62-31.8,30.11-41.92,12.15-9.28,27.08-14.43,44.54-15.61,2.61-.17,5.31-.25,8-.25a141.86,141.86,0,0,1,23.2,1.94C296.73,65.74,436.33,154.3,581.23,363l.68.93C683.63,497.59,739.72,662.83,756.08,726.84L723.19,733Z"/><path class="cls-2" d="M756.08,726.84,706.66,736c-12.91,1.26-31.21,9.61-37.12,26.31L644.91,824.6q-8.73-4.8-20.24-10.88c-78.95-42.51-243.42-131-322.71-238.87l-1-1.35c-137.4-163-212.13-324.14-200.07-431,3.88-34.41,16.62-60.05,37.87-76,14-10.63,31.63-15.86,52.55-15.86a141.86,141.86,0,0,1,23.2,1.94C296.73,65.74,436.33,154.3,581.23,363l.68.93C683.63,497.59,739.72,662.83,756.08,726.84Z"/><path class="cls-3" d="M723.19,733l-16.53,3c-12.91,1.26-31.21,9.61-37.12,26.31L655.37,798.2,108.64,108.42c6.5-17.72,16.62-31.8,30.11-41.92,12.15-9.28,27.08-14.43,44.54-15.61Z"/><path class="cls-1" d="M960.54,153.29c-1.52-45.29-17-82.49-45-107.54-30-27.08-71.52-39.31-119.77-35.43C673.42,20.19,520.59,128.49,376.44,307.47,278.35,414.59,221,599.73,193.41,688.8c-4.56,14.6-8.1,26.07-10.8,34a38,38,0,0,0,3.8,33,38.37,38.37,0,0,0,27,17.45l72.79,13.42,22.35,56.59a38.3,38.3,0,0,0,52,24.63c54.91-23.7,225.2-116.31,351.89-258.44C871.89,445,964.67,274.5,960.54,153.29ZM675.7,574.51l-.67.85C563.27,700.78,411.87,787.66,352.23,816l-10.54-26.66-7.93-20.07c-3.79-12.48-15.52-28.76-33-31.38l-25.56-4.72-40.31-7.51c2-6.32,4.3-13.66,6.83-21.93,26.57-85.69,81.81-264,172.49-362.6l1.09-1.27C548.93,173.79,692.74,69.45,799.86,60.76a147.71,147.71,0,0,1,30,.42c20.83,2.45,38.2,9.87,51.87,22.19,10.29,9.19,17.8,21.25,22.43,35.93,3.46,10.54,5.32,22.52,5.74,35.68C912.8,238.31,852.74,392.24,675.7,574.51Z"/><path class="cls-2" d="M675.7,574.51l-.67.85C563.27,700.78,411.87,787.66,352.23,816l-18.47-46.73c-3.79-12.48-15.52-28.76-33-31.38l-65.87-12.23c2-6.32,4.3-13.66,6.83-21.93,26.57-85.69,81.81-264,172.49-362.6l1.09-1.27C548.93,173.79,692.74,69.45,799.86,60.76,834.44,58,862,65.57,881.76,83.37c17.63,15.85,27.16,40,28.17,71.61C912.8,238.31,852.74,392.24,675.7,574.51Z"/><path class="cls-3" d="M904.19,119.3l-562.5,670-7.93-20.07c-3.79-12.48-15.52-28.76-33-31.38l-25.56-4.72-7.52-1.42L829.89,61.18c20.83,2.45,38.2,9.87,51.87,22.19C892.05,92.56,899.56,104.62,904.19,119.3Z"/></svg>