<svg id="Camada_1" data-name="Camada 1" xmlns="http://www.w3.org/2000/svg" viewBox="0 0 1133.41 1133.41"><defs><style>.cls-1{fill:#3fbbaa;}.cls-2{fill:#e7b53c;}.cls-3{fill:#fff;}.cls-4{fill:#191a3b;}.cls-5{fill:#5eaed9;}</style></defs><rect class="cls-1" width="1133.41" height="1133.41"/><circle class="cls-2" cx="566.71" cy="566.71" r="522.95"/><path class="cls-3" d="M232.53,861.78l9.68,9.73,10-5.63,13.67,13.75-5.68,10,9.68,9.73,29.58-51.9-14.88-14.95Zm38.6,8.63-9.68-9.73,21.07-11.86.58.58Z"/><polygon class="cls-3" points="371.25 942.77 370.68 942.47 378.56 905.65 362.72 897.39 332.82 946.72 344.91 953.02 364 921.43 364.48 921.69 356.34 958.99 365.89 963.98 391.84 935.96 392.33 936.22 377.24 969.9 389.33 976.21 412.69 923.47 396.94 915.24 371.25 942.77"/><path class="cls-3" d="M421.35,988.28,434.57,992l5.91-9.82,18.68,5.21,0,11.47,13.22,3.69.12-59.73-20.32-5.67Zm37.88-35.72-.05,24.18L446,973.05l12.47-20.71Z"/><path class="cls-3" d="M547,955.92q-4-2.34-10.88-2.94l-24.78-2.16-5,57.35,13.67,1.19,1.61-18.44,9.09.79,7.1,19.21,14.78,1.28-8-21.46a11.86,11.86,0,0,0,3.36-2q4.56-4.1,5.41-13.81.64-7.44-.84-12A12,12,0,0,0,547,955.92Zm-23,7.38,10.74.93c1.89.17,3.17.56,3.82,1.17a3.66,3.66,0,0,1,.79,3.12l-.84,9.63a3.69,3.69,0,0,1-1.31,2.94,6.73,6.73,0,0,1-4,.49l-10.73-.94Z"/><polygon class="cls-3" points="601.1 999.06 600.03 986.76 620.12 985.02 619.24 974.83 599.14 976.57 598.08 964.28 619.91 962.38 620.68 950.95 583.42 954.18 588.4 1011.53 625.57 1008.3 624.59 997.02 601.1 999.06"/><path class="cls-3" d="M609.89,943.84a8.94,8.94,0,0,0,1.26-.48,2.92,2.92,0,0,0,.86-.72l2.72-2.74a2,2,0,0,0,.8-1.45,2.4,2.4,0,0,0-.85-1.22l-5.36-5.36a1.77,1.77,0,0,0-1.26-.63,1.82,1.82,0,0,0-.89.44l-14.61,12.74,3.3,3.87Z"/><polygon class="cls-3" points="714.42 925.21 719.55 970.92 718.77 971.21 692.35 933.53 679.51 938.37 713.79 986.97 733.61 979.5 727.26 920.37 714.42 925.21"/><rect class="cls-3" x="761.9" y="901.91" width="13.72" height="57.57" transform="translate(-355.57 491.32) rotate(-29.1)"/><path class="cls-3" d="M842.06,879.9a79.51,79.51,0,0,0-9.67-10.68,18.08,18.08,0,0,0-8.39-4.56,14.94,14.94,0,0,0-8.71,1.19,49.36,49.36,0,0,0-10.57,6.6l-18.23,14.2,35.38,45.41,18.24-14.21a51.36,51.36,0,0,0,9-8.59,14.53,14.53,0,0,0,3.27-8.16,18.32,18.32,0,0,0-2.39-9.29A79.78,79.78,0,0,0,842.06,879.9Zm-2.75,23q-.42,2-3.61,4.51L826,915l-21.91-28.11,9.74-7.59q3.19-2.49,5.25-2.4t4.26,2.92L837.51,898Q839.72,900.88,839.31,902.89Z"/><path class="cls-3" d="M909.53,850.74l9.06-10.3-53.76-26L850.9,830.25l32.73,50,9.06-10.31-6.28-9.59,12.8-14.57Zm-28.94.7-13.24-20.23.55-.62,21.76,10.54Z"/><path class="cls-4" d="M773.06,737.21c-8.59-39.72-48.14-165.34-126.42-268.39-88.78-127.8-190.39-211.94-271.77-225-18.46-3-35.54-2.12-50.72,2.46a84.47,84.47,0,0,0-26.88,13.47,91.47,91.47,0,0,0-23.39,26.19c-8.31,13.81-13.69,30.37-15.81,49.12-9.4,82.87,42.86,198.92,143.39,318.42,58.63,79.37,174.63,141.73,230.39,171.76,9.17,4.93,16.39,8.82,21.26,11.63A26,26,0,0,0,690.77,823l13.86-35.14,4.59-11.63,30-5.56,10.72-2a26.12,26.12,0,0,0,18.17-9.8A25.83,25.83,0,0,0,773.06,737.21Zm-69.23,5c-8.77.86-21.2,6.54-25.21,17.89L669,784.43l-7.11,17.94Q656,799.1,648.13,795c-53.65-28.89-165.4-89-219.28-162.31l-.68-.91C334.81,521,284,411.51,292.22,338.9a98.4,98.4,0,0,1,5.28-23.16c4.41-12,11.29-21.6,20.46-28.48,8.25-6.31,18.39-9.8,30.26-10.6,1.77-.12,3.61-.18,5.44-.18a96,96,0,0,1,15.76,1.32c55.88,8.94,150.73,69.12,249.19,210.91l.46.63C688.19,580.18,726.3,692.45,737.42,736l-22.35,4.18Z"/><path class="cls-3" d="M737.42,736l-33.59,6.24c-8.77.86-21.2,6.54-25.21,17.89l-16.74,42.29Q656,799.1,648.13,795c-53.65-28.89-165.4-89-219.28-162.31l-.68-.91C334.81,521,284,411.51,292.22,338.9c2.64-23.39,11.29-40.81,25.74-51.64,9.51-7.22,21.49-10.78,35.7-10.78a96,96,0,0,1,15.76,1.32c55.88,8.94,150.73,69.12,249.19,210.91l.46.63C688.19,580.18,726.3,692.45,737.42,736Z"/><path class="cls-5" d="M715.07,740.13l-11.24,2.06c-8.77.86-21.2,6.54-25.21,17.89L669,784.43,297.5,315.74c4.41-12,11.29-21.6,20.46-28.48,8.25-6.31,18.39-9.8,30.26-10.6Z"/><path class="cls-4" d="M876.34,346.23c-1-30.77-11.58-56.05-30.55-73.07-20.4-18.4-48.6-26.71-81.38-24.07-83.16,6.7-187,80.29-284.95,201.91-66.65,72.78-105.63,198.58-124.37,259.1-3.09,9.91-5.5,17.71-7.33,23.1a25.79,25.79,0,0,0,2.58,22.41,26.08,26.08,0,0,0,18.34,11.86l49.46,9.11L433.32,815A26.06,26.06,0,0,0,446.39,831a25.79,25.79,0,0,0,11.92,2.92,26.05,26.05,0,0,0,10.32-2.12c37.31-16.1,153-79,239.1-175.6C816.11,544.47,879.15,428.59,876.34,346.23ZM682.8,632.44l-.46.58C606.4,718.24,503.53,777.27,463,796.53l-7.16-18.12-5.39-13.64c-2.58-8.48-10.55-19.54-22.41-21.31l-17.36-3.21-27.4-5.11c1.38-4.29,2.92-9.28,4.64-14.9C406,662,443.52,540.86,505.13,473.86l.75-.86c90.78-112.84,188.5-183.74,261.28-189.64a99.76,99.76,0,0,1,20.4.29c14.16,1.66,26,6.7,35.25,15.07,7,6.25,12.09,14.44,15.25,24.41A87.15,87.15,0,0,1,842,347.38C843.9,404,803.1,508.59,682.8,632.44Z"/><path class="cls-3" d="M682.8,632.44l-.46.58C606.4,718.24,503.53,777.27,463,796.53l-12.55-31.76c-2.58-8.48-10.55-19.54-22.41-21.31l-44.76-8.32c1.38-4.29,2.92-9.28,4.64-14.9C406,662,443.52,540.86,505.13,473.86l.75-.86c90.78-112.84,188.5-183.74,261.28-189.64,23.5-1.89,42.24,3.27,55.65,15.36,12,10.77,18.45,27.17,19.14,48.66C843.9,404,803.1,508.59,682.8,632.44Z"/><path class="cls-5" d="M838.06,323.13,455.85,778.41l-5.39-13.64c-2.58-8.48-10.55-19.54-22.41-21.31l-17.36-3.21-5.12-1,382-455.63c14.16,1.66,26,6.7,35.25,15.07C829.8,305,834.9,313.16,838.06,323.13Z"/></svg>